<?xml version="1.0" standalone="no"?>
<!DOCTYPE svg PUBLIC "-//W3C//DTD SVG 20010904//EN"
 "http://www.w3.org/TR/2001/REC-SVG-20010904/DTD/svg10.dtd">
<svg version="1.0" xmlns="http://www.w3.org/2000/svg"
 width="304.000000pt" height="304.000000pt" viewBox="0 0 304.000000 304.000000"
 preserveAspectRatio="xMidYMid meet">
<metadata>
Created by potrace 1.14, written by Peter Selinger 2001-2017
</metadata>
<g transform="translate(0.000000,304.000000) scale(0.100000,-0.100000)"
fill="#000000" stroke="none">
<path d="M2320 2795 c-58 -74 -108 -135 -113 -135 -4 0 -26 9 -49 21 -68 35
-194 68 -300 79 -120 12 -1631 14 -1626 2 2 -5 50 -102 108 -215 l105 -207
193 0 192 0 0 -721 c0 -583 2 -720 13 -716 17 6 354 223 395 254 l32 24 0 581
0 580 293 -4 c220 -4 301 -9 330 -19 l38 -15 -65 -85 -66 -86 -54 -6 c-94 -9
-180 -69 -222 -153 -28 -57 -26 -184 3 -239 34 -64 103 -121 169 -141 101 -29
193 -5 267 69 58 58 80 115 79 211 l0 80 51 66 c29 36 199 253 380 482 180
229 327 419 327 422 0 3 -84 6 -188 6 l-187 0 -105 -135z"/>
<path d="M2390 2163 l-145 -185 3 -96 c3 -77 -1 -111 -17 -163 -46 -147 -159
-267 -295 -313 -95 -32 -215 -37 -295 -11 l-21 6 0 -396 0 -397 -44 -49 c-83
-92 -98 -213 -40 -319 29 -54 94 -109 153 -129 51 -17 140 -13 187 8 181 82
223 312 83 448 l-39 38 2 175 3 175 64 16 c363 95 625 382 682 749 16 102 6
275 -21 375 -19 72 -93 240 -109 249 -3 2 -71 -80 -151 -181z"/>
</g>
</svg>
