<?xml version="1.0" encoding="UTF-8" standalone="no"?>
<svg
   version="1.0"
   width="257.3786pt"
   height="283.32501pt"
   viewBox="0 0 257.3786 283.32501"
   preserveAspectRatio="xMidYMid meet"
   id="svg10"
   sodipodi:docname="download (2).svg"
   inkscape:version="1.1.2 (b8e25be833, 2022-02-05)"
   xmlns:inkscape="http://www.inkscape.org/namespaces/inkscape"
   xmlns:sodipodi="http://sodipodi.sourceforge.net/DTD/sodipodi-0.dtd"
   xmlns="http://www.w3.org/2000/svg"
   xmlns:svg="http://www.w3.org/2000/svg">
  <defs
     id="defs14" />
  <sodipodi:namedview
     id="namedview12"
     pagecolor="#ffffff"
     bordercolor="#666666"
     borderopacity="1.0"
     inkscape:pageshadow="2"
     inkscape:pageopacity="0.0"
     inkscape:pagecheckerboard="0"
     inkscape:document-units="pt"
     showgrid="false"
     inkscape:zoom="1.2129808"
     inkscape:cx="-89.449069"
     inkscape:cy="208.57709"
     inkscape:window-width="1920"
     inkscape:window-height="1027"
     inkscape:window-x="-1928"
     inkscape:window-y="-8"
     inkscape:window-maximized="1"
     inkscape:current-layer="svg10"
     fit-margin-top="0"
     fit-margin-left="0"
     fit-margin-right="0"
     fit-margin-bottom="0" />
  <metadata
     id="metadata2">
Created by potrace 1.16, written by Peter Selinger 2001-2019
</metadata>
  <g
     transform="matrix(0.1,0,0,-0.1,-196,468)"
     fill="#000000"
     stroke="none"
     id="g8">
    <path
       d="m 4050,4548 c -57,-73 -104,-134 -105,-135 0,-1 -40,14 -88,33 -174,70 -132,67 -1059,71 -461,2 -838,0 -838,-4 0,-4 49,-102 108,-218 l 107,-210 192,-3 193,-2 2,-720 3,-720 218,141 217,141 v 579 579 l 293,-1 c 193,0 305,-4 329,-12 l 37,-12 -67,-87 c -62,-82 -70,-88 -103,-88 -165,0 -293,-168 -255,-334 33,-139 150,-225 292,-213 73,5 134,36 184,93 49,57 63,98 65,194 l 1,85 150,190 c 83,105 251,318 374,475 122,157 227,291 233,298 7,9 -31,12 -185,12 h -195 z m -487,-858 c 38,-30 52,-80 33,-123 -42,-103 -196,-73 -196,37 1,87 97,138 163,86 z"
       id="path4" />
    <path
       d="m 4117,3912 -147,-186 6,-71 c 12,-142 -36,-280 -132,-379 -103,-105 -221,-152 -362,-143 -48,3 -97,8 -109,12 l -23,7 v -400 -401 l -27,-21 c -119,-94 -127,-294 -15,-403 110,-107 277,-107 387,0 56,54 79,114 78,198 -1,83 -17,124 -72,187 l -41,46 v 174 173 l 73,17 c 39,10 122,43 184,73 91,46 127,71 202,141 174,164 269,354 290,583 9,104 0,227 -24,321 -17,66 -95,243 -112,253 -5,3 -75,-78 -156,-181 z M 3557,2208 c 12,-6 29,-26 38,-45 48,-100 -87,-193 -166,-114 -38,38 -41,106 -6,139 43,41 80,46 134,20 z"
       id="path6" />
  </g>
</svg>
